<svg width="1080" height="1350" viewBox="0 0 1080 1350" xmlns="http://www.w3.org/2000/svg">
  <defs>
    <linearGradient id="bg" x1="0" y1="0" x2="0" y2="1">
      <stop offset="0%" stop-color="#f9d976"/>
      <stop offset="100%" stop-color="#f39f86"/>
    </linearGradient>
    <linearGradient id="sun" x1="0" y1="0" x2="0" y2="1">
      <stop offset="0%" stop-color="#ffeec7" stop-opacity="0.9"/>
      <stop offset="100%" stop-color="#f6d27a" stop-opacity="0"/>
    </linearGradient>
  </defs>
  <rect width="1080" height="1350" fill="url(#bg)"/>
  <circle cx="820" cy="220" r="180" fill="url(#sun)" opacity="0.6"/>
  <circle cx="860" cy="200" r="110" fill="#ffeec7" opacity="0.45"/>

  <g transform="translate(0 880)">
    <g fill="none" stroke="#2d1b0f" stroke-width="5" stroke-linecap="round">
      <path d="M110 320c260-50 520-52 780-4 70 12 140 30 200 52" opacity="0.45"/>
      <path d="M180 380c240-40 480-42 720-6 90 14 170 34 240 58" opacity="0.32"/>
    </g>

    <g transform="translate(470 240)">
      <g fill="#0b0b0f">
        <ellipse cx="90" cy="86" rx="76" ry="56"/>
        <circle cx="148" cy="66" r="32"/>
        <polygon points="172,66 210,78 174,90"/>
        <polygon points="36,94 6,112 38,116"/>
        <ellipse cx="104" cy="84" rx="40" ry="28" opacity="0.9"/>
        <ellipse cx="108" cy="116" rx="52" ry="28" opacity="0.65"/>
        <path d="M78 140c-8 10-8 22-2 30 10 14 34 18 56 10 16-6 28-16 32-28-10 6-22 10-34 12-18 2-36 0-52-8z" opacity="0.4"/>
      </g>
      <g stroke="#0b0b0f" stroke-width="6" stroke-linecap="round">
        <path d="M104 142c-6 16-10 32-12 48"/>
        <path d="M128 146c-2 16-2 32 2 46"/>
      </g>
    </g>
  </g>

  <g opacity="0.08" fill="#ffffff">
    <circle cx="160" cy="220" r="6"/><circle cx="260" cy="180" r="5"/><circle cx="340" cy="260" r="4"/>
    <circle cx="440" cy="200" r="6"/><circle cx="540" cy="260" r="5"/><circle cx="640" cy="180" r="4"/>
    <circle cx="720" cy="240" r="5"/><circle cx="820" cy="160" r="4"/><circle cx="920" cy="240" r="5"/>
  </g>
</svg>
